<?xml version="1.0" standalone="no"?>
<!DOCTYPE svg PUBLIC "-//W3C//DTD SVG 1.1//EN" "http://www.w3.org/Graphics/SVG/1.1/DTD/svg11.dtd" >
<svg xmlns="http://www.w3.org/2000/svg">
<metadata></metadata>
<defs>
<font id="sakuraalpregular" horiz-adv-x="1406" >
<font-face units-per-em="2048" ascent="1638" descent="-410" />
<missing-glyph horiz-adv-x="1024" />
<glyph horiz-adv-x="2048" />
<glyph horiz-adv-x="2048" />
<glyph unicode="&#xd;" horiz-adv-x="1024" />
<glyph unicode=" "  horiz-adv-x="1024" />
<glyph unicode="&#x09;" horiz-adv-x="1024" />
<glyph unicode="&#xa0;" horiz-adv-x="1024" />
<glyph unicode="!" horiz-adv-x="604" d="M4 10l8 232l236 -9l-8 -231zM14 381l43 1055l207 -9l-43 -1054z" />
<glyph unicode="&#x22;" horiz-adv-x="753" d="M2 1126l12 306l191 -7l-15 -305zM285 1128l14 306l188 -7l-12 -305z" />
<glyph unicode="#" horiz-adv-x="1480" d="M-2 596l229 2l4 377l-217 12l11 199l211 -10l4 245l198 -2l-4 -254l344 -18l-2 323h199l2 -333l174 -9l-10 -200l-162 8v-328l201 2l2 -200l-201 -2l2 -381h-201l-2 379l-356 -5l-6 -405l-201 4l6 397l-223 -2zM426 602l354 4l-2 340l-346 19z" />
<glyph unicode="$" horiz-adv-x="1331" d="M-4 272l55 193q182 -53 365 -74l-4 215q-414 29 -414 301q0 279 408 318l-3 205l201 2l2 -203q166 -6 338 -41l-39 -197q-150 29 -297 37l2 -223q172 -8 285 -70q143 -80 143 -235q0 -300 -422 -318l2 -186l-200 -2v194q-207 23 -422 84zM197 903q0 -78 213 -96l-2 217 q-211 -20 -211 -121zM612 604l2 -221q225 6 226 119q-1 88 -228 102z" />
<glyph unicode="%" horiz-adv-x="1548" d="M2 1169q0 111 78 190t188 79q111 0 189 -79t78 -190t-78 -188.5t-189 -77.5t-188.5 78t-77.5 188zM68 102l952 1354l164 -115l-953 -1353zM203 1169q0 -27 19.5 -46t45.5 -19q27 0 47.5 19.5t20.5 45.5q0 27 -20.5 47.5t-47.5 20.5t-46 -20.5t-19 -47.5zM731 264 q0 111 78 188.5t188 77.5q111 0 189 -77.5t78 -188.5t-78 -189.5t-189 -78.5t-188.5 79t-77.5 189zM932 264q0 -68 65 -67q68 0 68 67q0 66 -68 66q-27 0 -46 -19.5t-19 -46.5z" />
<glyph unicode="&#x26;" horiz-adv-x="1558" d="M-2 422q0 215 164 336q-125 104 -125 278q0 199 158 316q141 104 346 104q201 0 342 -100q160 -115 159 -307q0 -193 -131 -299q39 -29 70 -62q104 113 279 111l-5 -201q-84 0 -131 -51t-47 -137q0 -172 164 -172l4 -201q-182 -2 -284 123q-164 -162 -433 -162 q-211 0 -360 102q-170 119 -170 322zM199 422q0 -113 114 -174q90 -49 215 -49q129 0 226 53q119 63 118 182q0 102 -92 162q-77 51 -186 55q-20 0 -78 2l-22 2q-123 10 -205 -47q-90 -66 -90 -186zM238 1036q0 -111 96 -151q63 -27 219 -29v-2l49 -2q242 0 242 197 q0 104 -105 159q-86 47 -198 47q-119 0 -203 -49q-100 -59 -100 -170z" />
<glyph unicode="(" horiz-adv-x="708" d="M-6 721q0 195 74.5 406.5t197.5 357.5l140 -137q-102 -121 -162 -290t-60 -331q0 -315 215 -633l-153 -119q-252 371 -252 746z" />
<glyph unicode=")" horiz-adv-x="716" d="M-10 1354l139 135q127 -147 199.5 -355t72.5 -409q1 -374 -249 -743l-156 116q217 319 217 635q0 164 -59.5 331t-163.5 290z" />
<glyph unicode="*" horiz-adv-x="1200" d="M-18 401l346 338l-326 310l123 133l332 -318l297 291l127 -129l-293 -287l317 -303l-123 -133l-323 311l-348 -342z" />
<glyph unicode="+" horiz-adv-x="1349" d="M0 836l461 10l4 416h182l-4 -412l442 10l7 -182l-451 -10l-6 -490h-182l6 486l-453 -11z" />
<glyph unicode="," horiz-adv-x="632" d="M0 -10l174 168l145 -154l-174 -168z" />
<glyph unicode="-" d="M0 838l1085 24l7 -184l-1086 -25z" />
<glyph unicode="." horiz-adv-x="579" d="M16 -10l15 219l200 -6l-12 -221z" />
<glyph unicode="/" horiz-adv-x="1337" d="M-12 102l948 1354l164 -115l-950 -1353z" />
<glyph unicode="0" horiz-adv-x="1515" d="M8 709q0 301 144 505q162 229 452 230q299 0 457 -227q137 -199 137 -510q0 -303 -141 -490q-158 -209 -453 -209q-291 0 -450 211q-145 190 -146 490zM209 723q0 -221 84 -354q102 -160 311 -160t311 151q84 129 84 349q0 223 -84 362q-102 172 -311 172 q-199 0 -305 -168q-90 -143 -90 -352z" />
<glyph unicode="1" horiz-adv-x="1007" d="M6 1489l510 27l-43 -1297l238 -10l-11 -201q-457 20 -622 21v202q76 0 198 -4l37 1076l-297 -15z" />
<glyph unicode="2" horiz-adv-x="1490" d="M20 2q0 365 115 553q145 236 488 236q395 0 395 227q0 238 -410 237q-242 0 -510 -69l-51 192q293 80 557 80q260 0 416 -88q197 -111 197 -352q0 -426 -639 -426q-170 0 -252 -111q-63 -84 -90 -268l913 -6l-2 -201l-932 6q-27 -8 -195 -10z" />
<glyph unicode="3" horiz-adv-x="1468" d="M2 1427q174 23 350 23q305 0 500 -70q293 -104 293 -352q0 -213 -287 -326q303 -119 303 -340q0 -376 -702 -376q-221 0 -451 37l31 196q211 -33 416 -33q508 0 508 176q0 131 -318 199q-197 43 -428 47l-190 4l2 201q-25 0 100 -2h86q231 0 422 35q309 57 309 182 q0 219 -596 219q-166 0 -323 -18z" />
<glyph unicode="4" horiz-adv-x="1482" d="M4 715q0 244 250 758l180 -89q-231 -473 -231 -667q0 -162 172 -223q115 -41 330 -45l57 811l199 -15l-56 -790q127 6 287 24l22 -200q-182 -21 -323 -27l-19 -246l-198 14l16 230q-686 16 -686 465z" />
<glyph unicode="5" horiz-adv-x="1335" d="M-12 621l22 804l105 -4v4l876 -22l-6 -201l-782 21l-10 -375q113 14 223 14q643 0 643 -422q0 -229 -174 -340q-145 -92 -387 -92q-236 0 -496 76l55 192q233 -68 445 -67q358 0 358 233q0 217 -430 217q-117 0 -242 -16l-2 -29z" />
<glyph unicode="6" horiz-adv-x="1470" d="M0 674q0 344 174 547q184 217 522 217q238 0 488 -125l-90 -180q-207 104 -398 104q-252 0 -381 -158q-117 -145 -116 -403q0 -205 116 -336q123 -139 324 -139q137 0 225 69q98 78 99 211q0 123 -76 189.5t-201 66.5q-90 0 -182 -39q-57 -27 -172 -77l-78 184l201 96 q106 41 221 41q213 0 349 -127t136 -340t-155 -348q-147 -127 -365 -127q-287 0 -464 192.5t-177 481.5z" />
<glyph unicode="7" horiz-adv-x="1452" d="M-2 1255l6 201l1159 -26l-4 -201h-65l-564 -1268l-182 82l531 1192z" />
<glyph unicode="8" horiz-adv-x="1478" d="M2 416q0 215 176 338q-135 102 -135 276q0 205 178 320q154 100 369 100q209 0 362 -94q182 -111 183 -314q0 -193 -142 -299q174 -119 174 -315q0 -213 -200 -334q-171 -102 -392 -102q-219 0 -378 96q-195 117 -195 328zM201 416q0 -113 133 -174q109 -49 241 -49 q141 0 254 53q139 66 140 182q0 106 -111 166q-90 47 -207 51q-23 0 -86 2l-26 2q-133 10 -228 -43q-111 -63 -110 -190zM244 1026q0 -109 118 -149q74 -25 240 -27v-2l55 -2q279 0 279 196q0 106 -127 164q-98 43 -219 43q-129 0 -223 -47q-123 -59 -123 -176z" />
<glyph unicode="9" horiz-adv-x="1482" d="M-6 961q0 227 180 370q170 135 401 135q289 0 451 -202q147 -186 148 -482q0 -350 -181 -561q-190 -225 -536 -225q-186 0 -396 80l72 186q174 -66 324 -65q260 0 393 165q123 154 123 420q0 213 -90 338q-102 145 -308 146q-150 0 -258 -78q-123 -88 -122 -232 q0 -125 76.5 -191.5t203.5 -66.5q172 0 361 156l98 -174q-123 -96 -215 -137q-113 -47 -250 -47q-209 0 -342 129t-133 336z" />
<glyph unicode=":" horiz-adv-x="563" d="M-10 291v239l200 -8v-239zM-10 1008l4 241l201 -8l-5 -242z" />
<glyph unicode=";" horiz-adv-x="569" d="M-43 223l53 342l205 -43l-55 -344zM-12 1014l2 241l207 -8l-2 -241z" />
<glyph unicode="&#x3c;" horiz-adv-x="923" d="M0 766l152 127l14 -19l387 398l139 -139l-399 -414l336 -414l-152 -127z" />
<glyph unicode="=" horiz-adv-x="1220" d="M-2 672l930 2l4 -203l-930 -2zM0 1020l930 22l6 -204l-930 -23z" />
<glyph unicode="&#x3e;" horiz-adv-x="923" d="M0 1133l401 -414l-335 -414l149 -127l477 588l-151 127l-15 -19l-387 398z" />
<glyph unicode="?" horiz-adv-x="1341" d="M6 1368q262 76 498 76q242 0 387 -92q172 -111 172 -340q0 -371 -500 -416l4 -346l-198 -2l-7 545q98 0 154 2q348 12 348 215q0 233 -356 233q-211 0 -445 -67zM336 10l12 201l248 -16l-12 -199z" />
<glyph unicode="@" horiz-adv-x="1783" d="M0 418v620q0 176 124 299t300 123h618q176 0 300 -123t124 -299v-579q-18 -137 -107.5 -208t-228.5 -69q-156 4 -227 105q-68 -8 -135 -8q-211 0 -340 75q-164 92 -164 289q0 213 201 307q154 72 385 62q10 61 24 125l197 -47q-57 -240 -57 -443q0 -102 8 -147 q18 -102 82 -115v2q53 -4 100 14q61 25 62 72v565q0 92 -65.5 157t-158.5 65h-618q-92 0 -157.5 -65t-65.5 -157v-620q0 -92 65.5 -156.5t157.5 -64.5h545v-201h-545q-176 0 -300 123t-124 299zM463 643q0 -164 305 -164q27 0 59 2q-14 80 -14 174q0 72 8 156 q-358 6 -358 -168z" />
<glyph unicode="A" horiz-adv-x="1589" d="M-4 541q0 379 125 604q160 289 508 289q352 0 514 -310q127 -238 127 -622q0 -262 -49 -508l-197 41q47 231 47 475q0 57 -4 115l-870 -39v-37q0 -265 53 -512l-197 -43q-57 266 -57 547zM213 788l829 37q-89 408 -415 408q-344 0 -414 -445z" />
<glyph unicode="B" horiz-adv-x="1509" d="M0 4l16 1364h27q266 61 510 62q238 0 383 -70q199 -94 199 -305q0 -190 -228 -301q289 -115 289 -340q0 -242 -328 -340q-207 -62 -526 -62q-70 0 -143 2v-14zM203 215q68 -2 133 -2q221 0 381 29q279 49 278 172q0 131 -286 194q-187 41 -402 41h-47q-70 -2 -53 -2z M208 852l58 -2h53q188 0 357 35q258 53 258 172q0 172 -379 172q-158 0 -340 -31l-4 -346h-3z" />
<glyph unicode="C" horiz-adv-x="1380" d="M6 727q0 362 244 545q215 164 588 164q166 0 313 -31l-41 -197q-129 27 -274 27q-629 0 -629 -508q0 -526 659 -526q143 0 275 24l39 -196q-146 -29 -310 -29q-385 0 -610 166q-254 188 -254 561z" />
<glyph unicode="D" horiz-adv-x="1468" d="M-6 29l6 28l6 -10v27q0 260 33 1376l201 -6l-2 -64q49 4 92 4q367 0 581 -161q244 -180 244 -535q0 -356 -252 -534q-217 -156 -588 -156q-170 0 -321 31zM201 203q61 -4 116 -4q639 0 639 491q0 494 -624 494q-49 0 -101 -4z" />
<glyph unicode="E" horiz-adv-x="1376" d="M2 1423q71 -1 120.5 -1t78.5 1v-2l929 -6l-2 -201l-923 7l10 -424l823 41l9 -201l-828 -41l8 -371l926 -22l-4 -201l-1137 29z" />
<glyph unicode="F" horiz-adv-x="1271" d="M0 0l12 1415l201 -2l-2 -37l911 58l13 -199l-924 -59l-4 -357l829 -28l-6 -199l-825 26l-4 -620z" />
<glyph unicode="G" horiz-adv-x="1460" d="M0 741q0 352 238 533q211 158 575 158q188 0 361 -39l-44 -197q-154 35 -319 35q-610 0 -610 -490q0 -544 536 -544h2q119 0 250 26v293l-270 -14l-12 200l481 27l2 -659q-246 -74 -449 -74q-356 0 -548.5 194.5t-192.5 550.5z" />
<glyph unicode="H" horiz-adv-x="1503" d="M2 1427l199 7l18 -578l744 -20l24 571l201 -8l-60 -1352l-198 8l24 580l-729 20l19 -653l-199 -6z" />
<glyph unicode="I" horiz-adv-x="1220" d="M2 14l2 201l369 -6l-19 1020l-258 4v201l719 -9l-2 -200l-260 2l18 -1020l371 -6l-2 -201z" />
<glyph unicode="J" horiz-adv-x="1507" d="M2 424q0 16 4 45l197 -18v-29q0 -217 221 -217q285 0 285 647q0 182 -23 377h-471v201h1014v-201h-342q24 -193 24 -365v-14q0 -330 -86 -543q-121 -303 -401 -303q-193 0 -307.5 113.5t-114.5 306.5z" />
<glyph unicode="K" horiz-adv-x="1398" d="M4 18l37 1436l201 -6l-13 -420q162 135 433 215q233 70 479 82l10 -201q-319 -18 -567 -116q-336 -133 -336 -365q0 -178 366 -313q256 -94 557 -131l-22 -199q-633 74 -938 326l-8 -314z" />
<glyph unicode="L" horiz-adv-x="1327" d="M-2 4l4 1432h201l-4 -1194l964 6v-201l-966 -6v-37h-199z" />
<glyph unicode="M" horiz-adv-x="1597" d="M4 6l27 1364q0 29 2 66l198 -11v-84q0 -193 112 -298t306 -105q381 0 381 474v20l199 12q2 -23 4 -96l33 -1348l-199 -4l-23 878q-158 -137 -395 -137q-260 0 -428 148l-18 -883z" />
<glyph unicode="N" horiz-adv-x="1490" d="M4 4v1417h201v-96l741 -930l15 1028l200 -2l-20 -1427l-199 2v84l-737 924v-1000h-201z" />
<glyph unicode="O" horiz-adv-x="1722" d="M2 717q0 303 204 514t507 211q301 0 503.5 -211t202.5 -514t-202.5 -514t-503.5 -211q-303 0 -507 211t-204 514zM203 717q0 -219 146.5 -371.5t363.5 -152.5t362.5 153.5t145.5 370.5t-145.5 370.5t-362.5 153.5t-363.5 -152.5t-146.5 -371.5z" />
<glyph unicode="P" horiz-adv-x="1419" d="M-2 1401h4v2q203 41 414 41q307 0 495 -103q242 -131 242 -413q0 -268 -209 -396q-172 -104 -457 -104q-117 0 -251 18l18 -442l-199 -8zM203 1231l24 -582q137 -20 262 -20q465 0 465 300q0 314 -538 314q-100 0 -213 -12z" />
<glyph unicode="Q" horiz-adv-x="1730" d="M2 711q0 299 204 506.5t501 207.5t501.5 -207.5t204.5 -506.5q0 -242 -133 -426l143 -142l-141 -143l-143 143q-195 -147 -432 -147q-297 0 -501 209t-204 506zM203 711q0 -213 145.5 -363.5t358.5 -150.5q152 0 286 88l-186 184l139 143l189 -184q78 123 77 283 q0 213 -146 363.5t-359 150.5t-358.5 -150.5t-145.5 -363.5z" />
<glyph unicode="R" horiz-adv-x="1445" d="M-4 1413q205 45 418 45q303 0 487 -102q236 -131 236 -412q-1 -287 -234 -416l230 -473l-181 -88l-239 494q-102 -20 -224 -21q-137 0 -290 27v-469h-199zM199 670q152 -29 293 -29q444 0 444 303q0 313 -522 313q-102 0 -215 -14v-573z" />
<glyph unicode="S" horiz-adv-x="1411" d="M-12 1028q0 227 174 334q143 90 383 90q236 0 502 -76l-56 -192q-235 67 -446 67h-6q-352 0 -353 -231q0 -180 299 -197q37 -2 123 -2q223 0 365 -90q168 -106 168 -317q0 -221 -150 -336q-133 -101 -362 -101q-287 0 -633 134l72 188q313 -121 565 -121q309 0 309 236 q0 135 -139 180q-80 27 -264 27q-233 0 -373 81q-178 104 -178 326z" />
<glyph unicode="T" horiz-adv-x="1402" d="M2 1219v200l1135 11l2 -201l-453 -4l-27 -1229l-200 4l26 1223z" />
<glyph unicode="U" horiz-adv-x="1486" d="M2 778q0 332 96 678l193 -55q-88 -317 -88 -625q0 -586 393 -586q375 0 375 574q0 313 -92 645l192 53q98 -356 98 -696q0 -332 -116 -530q-146 -246 -455 -246q-322 0 -473 246q-123 201 -123 542z" />
<glyph unicode="V" horiz-adv-x="1507" d="M-12 1413l180 86l539 -1151l487 1161l184 -77l-612 -1461l-184 78l20 49z" />
<glyph unicode="W" horiz-adv-x="1726" d="M-10 1438l194 51l267 -1024l225 946l190 -2l185 -920l299 994l192 -60l-440 -1460l-193 60l19 59l-166 825l-221 -934l-195 47l6 29z" />
<glyph unicode="X" horiz-adv-x="1583" d="M-10 1372l155 127l512 -629l531 635l153 -129l-555 -665l498 -611l-154 -127l-473 582l-493 -592l-154 129l518 621z" />
<glyph unicode="Y" horiz-adv-x="1579" d="M-35 1362l158 125l528 -664l525 668l157 -123l-579 -737l4 -635l-199 -2l-4 631z" />
<glyph unicode="Z" horiz-adv-x="1417" d="M0 12l2 201l37 -2l803 1034l-822 -14l-2 201l986 16h6h41l2 -31l108 -86l-872 -1124l870 -14l-4 -201z" />
<glyph unicode="[" horiz-adv-x="716" d="M4 -6l21 1450l372 -2l-2 -201l-184 2l-12 -1036l217 -2v-199h-221v-14z" />
<glyph unicode="\" horiz-adv-x="1357" d="M-8 1333l164 117l948 -1354l-162 -114z" />
<glyph unicode="]" horiz-adv-x="739" d="M0 2l6 201l182 -4l31 1034l-219 6l4 201l221 -6v14l193 -6l-45 -1450z" />
<glyph unicode="^" horiz-adv-x="1292" d="M0 1137l373 319l334 -348l-129 -143l-222 219l-225 -193z" />
<glyph unicode="_" d="M0 190l1085 25l7 -184l-1086 -25z" />
<glyph unicode="a" horiz-adv-x="1304" d="M-4 481q0 254 233 375q180 92 459 92q39 0 78 -2q8 37 18 80l195 -45q-59 -260 -59 -483q0 -305 131 -305l4 -199h-8q-97 0 -168 47q-113 -16 -232 -16q-270 0 -438 92q-213 117 -213 364zM195 482q0 -259 452 -259q51 0 109 4q-35 117 -35 279q0 111 14 242q-25 2 -47 2 q-493 0 -493 -268z" />
<glyph unicode="b" horiz-adv-x="1298" d="M0 4l37 1430l199 -4l-11 -398l41 2q31 2 62 2q242 0 426 -100q240 -131 239 -416q0 -293 -276 -422q-191 -89 -474 -89q-24 0 -48 1q-22 -6 -133 -6h-62zM205 211q14 0 29 -1q561 0 561 312q-1 314 -460 314q-34 0 -71 -2l-45 -3z" />
<glyph unicode="c" horiz-adv-x="1230" d="M-4 502q0 279 254 407q193 98 491 99q127 0 242 -17l-29 -196q-102 14 -209 14q-550 0 -550 -308q0 -304 542 -304q115 0 224 14l30 -197q-123 -16 -256 -16q-307 0 -493 96q-246 127 -246 408z" />
<glyph unicode="d" horiz-adv-x="1329" d="M-4 516q0 297 262 426q180 87 464 87q30 0 60 -1l-4 397l199 2l12 -1429h-198v8h-50q-307 0 -491 96q-254 133 -254 414zM195 518q0 -311 564 -311h29l-6 620h-57q-530 0 -530 -309z" />
<glyph unicode="e" horiz-adv-x="1323" d="M2 535q0 217 170 348q155 118 375 118h4q176 0 305 -83q152 -98 152 -265q0 -164 -125 -245q-104 -68 -277 -68q-176 0 -338 66l4 18l52 160q123 -45 286 -45q197 0 197 114q0 76 -96 117q-74 31 -160 31q-139 0 -236 -62q-115 -72 -114 -204q0 -338 393 -338 q164 0 342 71l76 -182q-217 -90 -418 -90q-266 0 -424 135q-168 141 -168 404z" />
<glyph unicode="f" horiz-adv-x="1255" d="M-8 842l4 200l272 -6q82 193 262 298q165 97 343 97q17 0 34 -1l37 -3l-10 -198h-6q-300 0 -439 -199l515 -14l-7 -201l-579 16q-8 -59 -8 -120q0 -262 147 -648l-184 -73q-162 424 -162 721q0 63 6 127z" />
<glyph unicode="g" horiz-adv-x="1337" d="M2 494q0 256 199 387q167 110 433 110h5q41 0 90 -2l-4 15l190 53q94 -344 95 -676q0 -342 -121 -543q-147 -250 -469 -250q-168 0 -395 78l65 191q195 -68 328 -68q233 0 330 205q-41 -2 -74 -2q-289 0 -461 104q-211 127 -211 398zM201 492q0 -299 475 -299q61 0 125 6 q10 84 10 180q0 186 -37 403q-63 8 -133 9q-440 0 -440 -299z" />
<glyph unicode="h" horiz-adv-x="1294" d="M-2 12v1418h199v-701q188 289 393 289q401 0 411 -1026h-198q-4 260 -35 467q-53 358 -178 358q-29 0 -70 -22q-137 -76 -235 -324q-88 -221 -88 -405v-50z" />
<glyph unicode="i" horiz-adv-x="542" d="M-14 1141l51 192l217 -67l-51 -193zM4 1018l182 4l21 -1020l-182 -4z" />
<glyph unicode="j" horiz-adv-x="1173" d="M-1 389q0 14 1 29l2 39l197 -17v-9q0 -238 221 -238h2q235 0 235 530q0 143 -20 293l197 28q22 -153 22 -306v-13q0 -289 -78 -473q-108 -260 -356 -260q-193 0 -312 116q-111 108 -111 281zM578 1157v201h270v-201h-270z" />
<glyph unicode="k" horiz-adv-x="1255" d="M-8 2l8 1440l199 -2l-2 -582q199 156 579 156q127 0 242 -17l-29 -198q-102 14 -209 14q-551 0 -551 -311t531 -312q106 0 209 15l28 -197q-115 -18 -239 -18q-379 0 -563 149l-5 -137h-198z" />
<glyph unicode="l" horiz-adv-x="602" d="M0 834q0 299 39 620l188 -27q-39 -303 -39 -591q0 -639 172 -639v-203q-360 6 -360 840z" />
<glyph unicode="m" horiz-adv-x="1648" d="M-2 1018l201 8l4 -98q89 73 197 73h3q182 0 285 -225q109 240 297 240q342 0 342 -625q0 -196 -33 -397l-196 31q28 178 28 352v12q0 428 -141 428q-109 0 -160 -278q-32 -173 -32 -369v-12q0 -59 -2 -125l-199 2q-1 12 -1 33.5t1 54.5v76q0 172 -35 344 q-53 260 -154 260q-102 0 -149 -174q-28 -102 -28 -224q0 -22 1 -45l15 -356l-201 -8z" />
<glyph unicode="n" horiz-adv-x="1353" d="M2 993h199l4 -280q195 303 407 303q406 0 416 -1014l-199 -2q-2 256 -34 463q-55 354 -183 354q-29 0 -71 -24q-141 -80 -242 -324q-88 -213 -88 -406v-45l-199 -2z" />
<glyph unicode="o" horiz-adv-x="1337" d="M-2 506q0 215 147.5 366.5t362.5 151.5t362.5 -151.5t147.5 -366.5t-147.5 -365.5t-362.5 -150.5t-362.5 150.5t-147.5 365.5zM197 506q0 -133 90 -225.5t221 -92.5t221 92.5t90 225.5t-89 226t-222 93t-222 -93t-89 -226z" />
<glyph unicode="p" horiz-adv-x="1325" d="M-4 -416l10 740q4 298 4 465t-4 202q127 20 262 21q305 0 502 -101q256 -131 256 -407q0 -305 -283 -432q-188 -85 -479 -85q-31 0 -63 1l-6 -406zM203 188h63q561 0 561 314q0 309 -563 309q-25 0 -55 -2z" />
<glyph unicode="q" horiz-adv-x="1355" d="M0 498q0 283 260 411q193 96 498 97q135 0 258 -19l-2 -20l16 -1387l-201 -4l-4 408q-37 -2 -67 -2q-313 0 -506 100q-252 131 -252 416zM199 496q0 -313 561 -314q29 0 63 2l-8 621h-55q-561 0 -561 -309z" />
<glyph unicode="r" horiz-adv-x="1099" d="M-10 1006l196 8l13 -328q219 307 647 315l4 -198q-334 -8 -496 -244q-130 -191 -130 -500q0 -26 1 -53l-196 -10q-2 27 -39 1010z" />
<glyph unicode="s" horiz-adv-x="1316" d="M-6 80l55 192q291 -84 526 -84q262 0 263 119q0 70 -150 92q-68 10 -192 11q-195 0 -324 55q-176 76 -176 246q0 321 531 321h3q195 0 412 -43l-39 -194q-197 39 -377 39q-331 0 -331 -124q0 -69 157 -89q78 -10 203 -11q188 0 313 -59q168 -78 168 -244 q0 -176 -155 -256q-119 -61 -312 -61q-258 0 -575 90z" />
<glyph unicode="t" horiz-adv-x="1294" d="M0 1014l387 10q18 211 55 412l197 -37q-33 -180 -51 -369l428 12l4 -200l-447 -13q-4 -82 -4 -149q0 -475 179 -477l4 -201q-383 0 -383 694q0 59 4 127l-369 -10z" />
<glyph unicode="u" horiz-adv-x="1331" d="M0 731q0 152 23 293l196 -31q-20 -127 -20 -260q0 -538 275 -538h1q164 0 248 190q63 145 63 344q0 18 -8 266l199 13q6 -76 6 -242q0 -12 21 -754l-199 -6l-4 135q-129 -147 -328 -147q-262 0 -383 254q-90 188 -90 483z" />
<glyph unicode="v" horiz-adv-x="1425" d="M-2 981l176 94l406 -758l385 736l176 -92l-514 -984l-178 93l18 34z" />
<glyph unicode="w" horiz-adv-x="1617" d="M-4 618q0 193 31 398l198 -31q-28 -182 -28 -355v-12q0 -425 138 -425h1q111 0 166 290q37 195 37 387q0 61 4 127l198 -2v-90q0 -25 -2 -51v-25q0 -193 31 -360q49 -262 148 -262q178 0 178 512q0 137 -17 276l199 25q18 -154 18 -313q0 -699 -378 -699q-182 0 -283 230 q-109 -244 -299 -244q-340 0 -340 624z" />
<glyph unicode="x" horiz-adv-x="1374" d="M-12 918l143 141l401 -408l404 404l141 -142l-403 -403l385 -389l-141 -141l-386 389l-389 -389l-141 141l391 389z" />
<glyph unicode="y" horiz-adv-x="1363" d="M-6 -254l88 180q285 -143 502 -143q252 0 252 262v12l-2 97q-137 -158 -345 -158q-252 0 -376 170q-109 147 -109 407q0 231 74 469l188 -61q-63 -211 -63 -410q0 -374 284 -374h2q180 0 273 217q67 159 67 371v18l-2 201l199 8q2 -39 2 -213q0 -123 4 -369l2 -373 q0 -221 -116.5 -348t-335.5 -127q-264 0 -588 164z" />
<glyph unicode="z" horiz-adv-x="1316" d="M-4 829l4 199l1016 -18l-4 -199h-33l-645 -604l700 -10l-4 -199l-1016 14l2 154l-8 8l8 8l2 29h29l647 606z" />
<glyph unicode="{" horiz-adv-x="833" d="M-8 614v201h125q16 176 88 352q74 186 184 314l143 -135q-104 -121 -165.5 -290t-61.5 -331q0 -315 219 -635l-155 -117q-219 317 -250 641h-127z" />
<glyph unicode="|" horiz-adv-x="520" d="M-4 1432h176l8 -1432h-176z" />
<glyph unicode="}" horiz-adv-x="825" d="M-12 1346l143 135q111 -127 184 -314q72 -176 88 -352h125v-201h-125q-31 -324 -249 -641l-158 117q219 319 219 635q0 166 -60.5 333t-166.5 288z" />
<glyph unicode="~" horiz-adv-x="1292" d="M0 1137l373 319l260 -280l256 178l117 -158l-402 -278l-248 266l-225 -193z" />
<glyph unicode="&#xad;" d="M0 838l1085 24l7 -184l-1086 -25z" />
<glyph unicode="&#x2000;" horiz-adv-x="758" />
<glyph unicode="&#x2001;" horiz-adv-x="1516" />
<glyph unicode="&#x2002;" horiz-adv-x="758" />
<glyph unicode="&#x2003;" horiz-adv-x="1516" />
<glyph unicode="&#x2004;" horiz-adv-x="505" />
<glyph unicode="&#x2005;" horiz-adv-x="379" />
<glyph unicode="&#x2006;" horiz-adv-x="252" />
<glyph unicode="&#x2007;" horiz-adv-x="252" />
<glyph unicode="&#x2008;" horiz-adv-x="189" />
<glyph unicode="&#x2009;" horiz-adv-x="303" />
<glyph unicode="&#x200a;" horiz-adv-x="84" />
<glyph unicode="&#x2010;" d="M0 838l1085 24l7 -184l-1086 -25z" />
<glyph unicode="&#x2011;" d="M0 838l1085 24l7 -184l-1086 -25z" />
<glyph unicode="&#x2012;" d="M0 838l1085 24l7 -184l-1086 -25z" />
<glyph unicode="&#x2013;" horiz-adv-x="1338" d="M0 838l1017 24l7 -184l-1018 -25z" />
<glyph unicode="&#x2014;" horiz-adv-x="2362" d="M0 838l2035 24l13 -184l-2037 -25z" />
<glyph unicode="&#x2018;" horiz-adv-x="675" />
<glyph unicode="&#x2019;" horiz-adv-x="544" d="M25 1126l12 306l174 -7l-10 -305z" />
<glyph unicode="&#x202f;" horiz-adv-x="303" />
<glyph unicode="&#x205f;" horiz-adv-x="379" />
<glyph unicode="&#x25fc;" horiz-adv-x="1060" d="M0 0v1060h1060v-1060h-1060z" />
</font>
</defs>
</svg>
